  0
SECTION
  2
HEADER
  9
$ACADVER
  1
AC1009
  0
ENDSEC
  0
SECTION
  2
ENTITIES
  0
POLYLINE
  5
90
  8
Layer_1
  62
3
  70
1
  66
1
  10
0
  20
0
  30
0
  0
VERTEX
  5
90
  8
Layer_1
  10
344.45428
  20
284.01056
  0
VERTEX
  5
91
  8
Layer_1
  10
329.27307
  20
284.01056
  0
VERTEX
  5
92
  8
Layer_1
  10
329.27307
  20
279.1846
  0
VERTEX
  5
93
  8
Layer_1
  10
344.45428
  20
279.1846
  0
VERTEX
  5
94
  8
Layer_1
  10
344.45428
  20
284.01056
  0
SEQEND
  0
POLYLINE
  5
96
  8
Layer_1
  62
3
  70
1
  66
1
  10
0
  20
0
  30
0
  0
VERTEX
  5
96
  8
Layer_1
  10
447.98871
  20
284.01056
  0
VERTEX
  5
97
  8
Layer_1
  10
432.80753
  20
284.01056
  0
VERTEX
  5
98
  8
Layer_1
  10
432.80753
  20
279.18457
  0
VERTEX
  5
99
  8
Layer_1
  10
447.98871
  20
279.18457
  0
VERTEX
  5
9a
  8
Layer_1
  10
447.98871
  20
284.01056
  0
SEQEND
  0
POLYLINE
  5
9c
  8
Layer_1
  62
3
  70
1
  66
1
  10
0
  20
0
  30
0
  0
VERTEX
  5
9c
  8
Layer_1
  10
225.73871
  20
279.1846
  0
VERTEX
  5
9d
  8
Layer_1
  10
240.91992
  20
279.1846
  0
VERTEX
  5
9e
  8
Layer_1
  10
240.91992
  20
284.01059
  0
VERTEX
  5
9f
  8
Layer_1
  10
225.73871
  20
284.01059
  0
VERTEX
  5
a0
  8
Layer_1
  10
225.73871
  20
279.1846
  0
SEQEND
  0
POLYLINE
  5
a2
  8
Layer_1
  62
3
  70
1
  66
1
  10
0
  20
0
  30
0
  0
VERTEX
  5
a2
  8
Layer_1
  10
184.76062
  20
280.03021
  0
VERTEX
  5
a3
  8
Layer_1
  10
184.80157
  20
278.42154
  0
VERTEX
  5
a4
  8
Layer_1
  10
184.92322
  20
276.83401
  0
VERTEX
  5
a5
  8
Layer_1
  10
185.12347
  20
275.26956
  0
VERTEX
  5
a6
  8
Layer_1
  10
185.40045
  20
273.73013
  0
VERTEX
  5
a7
  8
Layer_1
  10
185.75214
  20
272.21771
  0
VERTEX
  5
a8
  8
Layer_1
  10
186.17651
  20
270.73428
  0
VERTEX
  5
a9
  8
Layer_1
  10
186.67163
  20
269.2818
  0
VERTEX
  5
aa
  8
Layer_1
  10
187.23553
  20
267.86218
  0
VERTEX
  5
ab
  8
Layer_1
  10
187.86621
  20
266.47745
  0
VERTEX
  5
ac
  8
Layer_1
  10
188.56171
  20
265.12958
  0
VERTEX
  5
ad
  8
Layer_1
  10
189.32001
  20
263.82047
  0
VERTEX
  5
ae
  8
Layer_1
  10
190.1391
  20
262.55212
  0
VERTEX
  5
af
  8
Layer_1
  10
191.01715
  20
261.32648
  0
VERTEX
  5
b0
  8
Layer_1
  10
191.95209
  20
260.14557
  0
VERTEX
  5
b1
  8
Layer_1
  10
192.94189
  20
259.01129
  0
VERTEX
  5
b2
  8
Layer_1
  10
193.98468
  20
257.9256
  0
VERTEX
  5
b3
  8
Layer_1
  10
195.07843
  20
256.8905
  0
VERTEX
  5
b4
  8
Layer_1
  10
196.22113
  20
255.90796
  0
VERTEX
  5
b5
  8
Layer_1
  10
197.41083
  20
254.97992
  0
VERTEX
  5
b6
  8
Layer_1
  10
198.64563
  20
254.10837
  0
VERTEX
  5
b7
  8
Layer_1
  10
199.9234
  20
253.29523
  0
VERTEX
  5
b8
  8
Layer_1
  10
201.24225
  20
252.54251
  0
VERTEX
  5
b9
  8
Layer_1
  10
202.60022
  20
251.85217
  0
VERTEX
  5
ba
  8
Layer_1
  10
203.99524
  20
251.22617
  0
VERTEX
  5
bb
  8
Layer_1
  10
205.42542
  20
250.66644
  0
VERTEX
  5
bc
  8
Layer_1
  10
206.88873
  20
250.17499
  0
VERTEX
  5
bd
  8
Layer_1
  10
208.38324
  20
249.75372
  0
VERTEX
  5
be
  8
Layer_1
  10
209.90692
  20
249.40466
  0
VERTEX
  5
bf
  8
Layer_1
  10
211.45776
  20
249.12976
  0
VERTEX
  5
c0
  8
Layer_1
  10
213.03387
  20
248.93094
  0
VERTEX
  5
c1
  8
Layer_1
  10
214.63324
  20
248.81021
  0
VERTEX
  5
c2
  8
Layer_1
  10
216.25397
  20
248.76953
  0
VERTEX
  5
c3
  8
Layer_1
  10
457.47592
  20
248.76953
  0
VERTEX
  5
c4
  8
Layer_1
  10
459.09662
  20
248.81021
  0
VERTEX
  5
c5
  8
Layer_1
  10
460.69601
  20
248.93094
  0
VERTEX
  5
c6
  8
Layer_1
  10
462.27216
  20
249.12976
  0
VERTEX
  5
c7
  8
Layer_1
  10
463.82306
  20
249.40466
  0
VERTEX
  5
c8
  8
Layer_1
  10
465.34677
  20
249.75372
  0
VERTEX
  5
c9
  8
Layer_1
  10
466.84125
  20
250.17499
  0
VERTEX
  5
ca
  8
Layer_1
  10
468.30457
  20
250.66644
  0
VERTEX
  5
cb
  8
Layer_1
  10
469.73477
  20
251.22617
  0
VERTEX
  5
cc
  8
Layer_1
  10
471.12985
  20
251.85217
  0
VERTEX
  5
cd
  8
Layer_1
  10
472.48779
  20
252.54251
  0
VERTEX
  5
ce
  8
Layer_1
  10
473.80664
  20
253.29523
  0
VERTEX
  5
cf
  8
Layer_1
  10
475.08444
  20
254.10837
  0
VERTEX
  5
d0
  8
Layer_1
  10
476.31921
  20
254.97992
  0
VERTEX
  5
d1
  8
Layer_1
  10
477.50894
  20
255.90796
  0
VERTEX
  5
d2
  8
Layer_1
  10
478.65167
  20
256.8905
  0
VERTEX
  5
d3
  8
Layer_1
  10
479.74545
  20
257.9256
  0
VERTEX
  5
d4
  8
Layer_1
  10
480.78827
  20
259.01129
  0
VERTEX
  5
d5
  8
Layer_1
  10
481.77814
  20
260.14557
  0
VERTEX
  5
d6
  8
Layer_1
  10
482.71307
  20
261.32648
  0
VERTEX
  5
d7
  8
Layer_1
  10
483.59113
  20
262.55212
  0
VERTEX
  5
d8
  8
Layer_1
  10
484.41031
  20
263.82047
  0
VERTEX
  5
d9
  8
Layer_1
  10
485.16864
  20
265.12958
  0
VERTEX
  5
da
  8
Layer_1
  10
485.86414
  20
266.47745
  0
VERTEX
  5
db
  8
Layer_1
  10
486.49481
  20
267.86215
  0
VERTEX
  5
dc
  8
Layer_1
  10
487.05872
  20
269.28174
  0
VERTEX
  5
dd
  8
Layer_1
  10
487.55386
  20
270.73422
  0
VERTEX
  5
de
  8
Layer_1
  10
487.97827
  20
272.21765
  0
VERTEX
  5
df
  8
Layer_1
  10
488.32993
  20
273.73007
  0
VERTEX
  5
e0
  8
Layer_1
  10
488.60687
  20
275.2695
  0
VERTEX
  5
e1
  8
Layer_1
  10
488.80716
  20
276.83395
  0
VERTEX
  5
e2
  8
Layer_1
  10
488.92877
  20
278.42151
  0
VERTEX
  5
e3
  8
Layer_1
  10
488.96976
  20
280.03018
  0
VERTEX
  5
e4
  8
Layer_1
  10
488.96976
  20
376.06848
  0
VERTEX
  5
e5
  8
Layer_1
  10
488.92764
  20
378.35477
  0
VERTEX
  5
e6
  8
Layer_1
  10
488.80173
  20
380.6326
  0
VERTEX
  5
e7
  8
Layer_1
  10
488.59268
  20
382.89984
  0
VERTEX
  5
e8
  8
Layer_1
  10
488.30112
  20
385.15436
  0
VERTEX
  5
e9
  8
Layer_1
  10
487.9277
  20
387.39398
  0
VERTEX
  5
ea
  8
Layer_1
  10
487.47314
  20
389.61652
  0
VERTEX
  5
eb
  8
Layer_1
  10
486.93802
  20
391.81982
  0
VERTEX
  5
ec
  8
Layer_1
  10
486.323
  20
394.00174
  0
VERTEX
  5
ed
  8
Layer_1
  10
485.62872
  20
396.16013
  0
VERTEX
  5
ee
  8
Layer_1
  10
484.8559
  20
398.29279
  0
VERTEX
  5
ef
  8
Layer_1
  10
484.00516
  20
400.39761
  0
VERTEX
  5
f0
  8
Layer_1
  10
483.07712
  20
402.47241
  0
VERTEX
  5
f1
  8
Layer_1
  10
482.07245
  20
404.51501
  0
VERTEX
  5
f2
  8
Layer_1
  10
480.99182
  20
406.52325
  0
VERTEX
  5
f3
  8
Layer_1
  10
479.83585
  20
408.495
  0
VERTEX
  5
f4
  8
Layer_1
  10
478.60519
  20
410.4281
  0
VERTEX
  5
f5
  8
Layer_1
  10
476.15326
  20
414.0278
  0
VERTEX
  5
f6
  8
Layer_1
  10
473.62451
  20
417.54492
  0
VERTEX
  5
f7
  8
Layer_1
  10
471.02081
  20
420.97906
  0
VERTEX
  5
f8
  8
Layer_1
  10
468.34399
  20
424.32983
  0
VERTEX
  5
f9
  8
Layer_1
  10
465.59595
  20
427.59692
  0
VERTEX
  5
fa
  8
Layer_1
  10
462.77844
  20
430.77985
  0
VERTEX
  5
fb
  8
Layer_1
  10
459.89337
  20
433.87833
  0
VERTEX
  5
fc
  8
Layer_1
  10
456.94257
  20
436.89194
  0
VERTEX
  5
fd
  8
Layer_1
  10
453.92786
  20
439.82031
  0
VERTEX
  5
fe
  8
Layer_1
  10
450.85114
  20
442.66302
  0
VERTEX
  5
ff
  8
Layer_1
  10
447.71423
  20
445.4198
  0
VERTEX
  5
100
  8
Layer_1
  10
444.51892
  20
448.09015
  0
VERTEX
  5
101
  8
Layer_1
  10
441.26715
  20
450.67377
  0
VERTEX
  5
102
  8
Layer_1
  10
437.96069
  20
453.17029
  0
VERTEX
  5
103
  8
Layer_1
  10
434.60144
  20
455.57925
  0
VERTEX
  5
104
  8
Layer_1
  10
431.19122
  20
457.90036
  0
VERTEX
  5
105
  8
Layer_1
  10
427.73187
  20
460.13321
  0
VERTEX
  5
106
  8
Layer_1
  10
424.22522
  20
462.2774
  0
VERTEX
  5
107
  8
Layer_1
  10
420.67316
  20
464.33255
  0
VERTEX
  5
108
  8
Layer_1
  10
417.07745
  20
466.29831
  0
VERTEX
  5
109
  8
Layer_1
  10
413.44
  20
468.17432
  0
VERTEX
  5
10a
  8
Layer_1
  10
409.7627
  20
469.96014
  0
VERTEX
  5
10b
  8
Layer_1
  10
406.0473
  20
471.65543
  0
VERTEX
  5
10c
  8
Layer_1
  10
402.29572
  20
473.25983
  0
VERTEX
  5
10d
  8
Layer_1
  10
398.50977
  20
474.77295
  0
VERTEX
  5
10e
  8
Layer_1
  10
394.69128
  20
476.19437
  0
VERTEX
  5
10f
  8
Layer_1
  10
390.8421
  20
477.52377
  0
VERTEX
  5
110
  8
Layer_1
  10
386.96405
  20
478.76074
  0
VERTEX
  5
111
  8
Layer_1
  10
383.05908
  20
479.90491
  0
VERTEX
  5
112
  8
Layer_1
  10
379.12897
  20
480.9559
  0
VERTEX
  5
113
  8
Layer_1
  10
375.17554
  20
481.91333
  0
VERTEX
  5
114
  8
Layer_1
  10
371.20062
  20
482.77686
  0
VERTEX
  5
115
  8
Layer_1
  10
367.20612
  20
483.54602
  0
VERTEX
  5
116
  8
Layer_1
  10
363.19385
  20
484.22052
  0
VERTEX
  5
117
  8
Layer_1
  10
359.16571
  20
484.79996
  0
VERTEX
  5
118
  8
Layer_1
  10
355.12341
  20
485.28394
  0
VERTEX
  5
119
  8
Layer_1
  10
351.06891
  20
485.67212
  0
VERTEX
  5
11a
  8
Layer_1
  10
347.00403
  20
485.96408
  0
VERTEX
  5
11b
  8
Layer_1
  10
342.9306
  20
486.15945
  0
VERTEX
  5
11c
  8
Layer_1
  10
338.85052
  20
486.25787
  0
VERTEX
  5
11d
  8
Layer_1
  10
334.76556
  20
486.25897
  0
VERTEX
  5
11e
  8
Layer_1
  10
330.67761
  20
486.16235
  0
VERTEX
  5
11f
  8
Layer_1
  10
326.58844
  20
485.96765
  0
VERTEX
  5
120
  8
Layer_1
  10
322.5
  20
485.67444
  0
VERTEX
  5
121
  8
Layer_1
  10
318.41406
  20
485.28241
  0
VERTEX
  5
122
  8
Layer_1
  10
314.33252
  20
484.79117
  0
VERTEX
  5
123
  8
Layer_1
  10
310.25714
  20
484.20032
  0
VERTEX
  5
124
  8
Layer_1
  10
306.18988
  20
483.50946
  0
VERTEX
  5
125
  8
Layer_1
  10
302.13251
  20
482.71826
  0
VERTEX
  5
126
  8
Layer_1
  10
298.08685
  20
481.82632
  0
VERTEX
  5
127
  8
Layer_1
  10
294.05487
  20
480.83325
  0
VERTEX
  5
128
  8
Layer_1
  10
290.03827
  20
479.73871
  0
VERTEX
  5
129
  8
Layer_1
  10
286.03894
  20
478.5423
  0
VERTEX
  5
12a
  8
Layer_1
  10
282.05878
  20
477.24365
  0
VERTEX
  5
12b
  8
Layer_1
  10
278.09967
  20
475.84235
  0
VERTEX
  5
12c
  8
Layer_1
  10
274.16321
  20
474.33804
  0
VERTEX
  5
12d
  8
Layer_1
  10
270.2514
  20
472.73038
  0
VERTEX
  5
12e
  8
Layer_1
  10
266.36627
  20
471.01892
  0
VERTEX
  5
12f
  8
Layer_1
  10
262.50946
  20
469.20337
  0
VERTEX
  5
130
  8
Layer_1
  10
258.6828
  20
467.28326
  0
VERTEX
  5
131
  8
Layer_1
  10
254.88818
  20
465.25827
  0
VERTEX
  5
132
  8
Layer_1
  10
251.1275
  20
463.12802
  0
VERTEX
  5
133
  8
Layer_1
  10
247.40253
  20
460.89209
  0
VERTEX
  5
134
  8
Layer_1
  10
243.71515
  20
458.55017
  0
VERTEX
  5
135
  8
Layer_1
  10
240.11438
  20
456.13269
  0
VERTEX
  5
136
  8
Layer_1
  10
236.58136
  20
453.62738
  0
VERTEX
  5
137
  8
Layer_1
  10
233.11737
  20
451.03571
  0
VERTEX
  5
138
  8
Layer_1
  10
229.72406
  20
448.35916
  0
VERTEX
  5
139
  8
Layer_1
  10
226.40289
  20
445.59924
  0
VERTEX
  5
13a
  8
Layer_1
  10
223.15533
  20
442.75745
  0
VERTEX
  5
13b
  8
Layer_1
  10
219.98297
  20
439.83527
  0
VERTEX
  5
13c
  8
Layer_1
  10
216.88715
  20
436.83417
  0
VERTEX
  5
13d
  8
Layer_1
  10
213.86957
  20
433.75565
  0
VERTEX
  5
13e
  8
Layer_1
  10
210.93158
  20
430.60123
  0
VERTEX
  5
13f
  8
Layer_1
  10
208.07477
  20
427.37238
  0
VERTEX
  5
140
  8
Layer_1
  10
205.3006
  20
424.07056
  0
VERTEX
  5
141
  8
Layer_1
  10
202.6106
  20
420.6973
  0
VERTEX
  5
142
  8
Layer_1
  10
200.00616
  20
417.25409
  0
VERTEX
  5
143
  8
Layer_1
  10
197.48895
  20
413.74237
  0
VERTEX
  5
144
  8
Layer_1
  10
195.06042
  20
410.1637
  0
VERTEX
  5
145
  8
Layer_1
  10
193.83728
  20
408.23474
  0
VERTEX
  5
146
  8
Layer_1
  10
192.68835
  20
406.26746
  0
VERTEX
  5
147
  8
Layer_1
  10
191.61432
  20
404.26401
  0
VERTEX
  5
148
  8
Layer_1
  10
190.61591
  20
402.22659
  0
VERTEX
  5
149
  8
Layer_1
  10
189.69366
  20
400.15729
  0
VERTEX
  5
14a
  8
Layer_1
  10
188.84821
  20
398.05823
  0
VERTEX
  5
14b
  8
Layer_1
  10
188.08026
  20
395.93158
  0
VERTEX
  5
14c
  8
Layer_1
  10
187.39038
  20
393.77948
  0
VERTEX
  5
14d
  8
Layer_1
  10
186.77924
  20
391.60406
  0
VERTEX
  5
14e
  8
Layer_1
  10
186.2475
  20
389.40744
  0
VERTEX
  5
14f
  8
Layer_1
  10
185.79584
  20
387.19177
  0
VERTEX
  5
150
  8
Layer_1
  10
185.42487
  20
384.95923
  0
VERTEX
  5
151
  8
Layer_1
  10
185.13519
  20
382.71191
  0
VERTEX
  5
152
  8
Layer_1
  10
184.92755
  20
380.45193
  0
VERTEX
  5
153
  8
Layer_1
  10
184.80249
  20
378.18149
  0
VERTEX
  5
154
  8
Layer_1
  10
184.76062
  20
375.90268
  0
VERTEX
  5
155
  8
Layer_1
  10
184.76062
  20
280.03021
  0
SEQEND
  0
POLYLINE
  5
157
  8
Layer_0
  62
1
  66
1
  10
0
  20
0
  30
0
  0
VERTEX
  5
157
  8
Layer_0
  10
819.75958
  20
7.8067627
  0
VERTEX
  5
158
  8
Layer_0
  10
159.3598
  20
7.8067627
  0
SEQEND
  0
POLYLINE
  5
15a
  8
Layer_1
  62
3
  70
1
  66
1
  10
0
  20
0
  30
0
  0
VERTEX
  5
15a
  8
Layer_1
  10
649.84625
  20
284.01056
  0
VERTEX
  5
15b
  8
Layer_1
  10
634.66504
  20
284.01056
  0
VERTEX
  5
15c
  8
Layer_1
  10
634.66504
  20
279.1846
  0
VERTEX
  5
15d
  8
Layer_1
  10
649.84625
  20
279.1846
  0
VERTEX
  5
15e
  8
Layer_1
  10
649.84625
  20
284.01056
  0
SEQEND
  0
POLYLINE
  5
160
  8
Layer_1
  62
3
  70
1
  66
1
  10
0
  20
0
  30
0
  0
VERTEX
  5
160
  8
Layer_1
  10
753.38068
  20
284.01056
  0
VERTEX
  5
161
  8
Layer_1
  10
738.19946
  20
284.01056
  0
VERTEX
  5
162
  8
Layer_1
  10
738.19946
  20
279.18457
  0
VERTEX
  5
163
  8
Layer_1
  10
753.38068
  20
279.18457
  0
VERTEX
  5
164
  8
Layer_1
  10
753.38068
  20
284.01056
  0
SEQEND
  0
POLYLINE
  5
166
  8
Layer_1
  62
3
  70
1
  66
1
  10
0
  20
0
  30
0
  0
VERTEX
  5
166
  8
Layer_1
  10
531.13068
  20
279.1846
  0
VERTEX
  5
167
  8
Layer_1
  10
546.31189
  20
279.1846
  0
VERTEX
  5
168
  8
Layer_1
  10
546.31189
  20
284.01059
  0
VERTEX
  5
169
  8
Layer_1
  10
531.13068
  20
284.01059
  0
VERTEX
  5
16a
  8
Layer_1
  10
531.13068
  20
279.1846
  0
SEQEND
  0
POLYLINE
  5
16c
  8
Layer_1
  62
3
  70
1
  66
1
  10
0
  20
0
  30
0
  0
VERTEX
  5
16c
  8
Layer_1
  10
490.15262
  20
280.03021
  0
VERTEX
  5
16d
  8
Layer_1
  10
490.1936
  20
278.42154
  0
VERTEX
  5
16e
  8
Layer_1
  10
490.31522
  20
276.83401
  0
VERTEX
  5
16f
  8
Layer_1
  10
490.5155
  20
275.26956
  0
VERTEX
  5
170
  8
Layer_1
  10
490.79245
  20
273.73013
  0
VERTEX
  5
171
  8
Layer_1
  10
491.1441
  20
272.21771
  0
VERTEX
  5
172
  8
Layer_1
  10
491.56848
  20
270.73428
  0
VERTEX
  5
173
  8
Layer_1
  10
492.06363
  20
269.2818
  0
VERTEX
  5
174
  8
Layer_1
  10
492.6275
  20
267.86218
  0
VERTEX
  5
175
  8
Layer_1
  10
493.25818
  20
266.47745
  0
VERTEX
  5
176
  8
Layer_1
  10
493.95361
  20
265.12958
  0
VERTEX
  5
177
  8
Layer_1
  10
494.71191
  20
263.82047
  0
VERTEX
  5
178
  8
Layer_1
  10
495.5311
  20
262.55212
  0
VERTEX
  5
179
  8
Layer_1
  10
496.40912
  20
261.32648
  0
VERTEX
  5
17a
  8
Layer_1
  10
497.34406
  20
260.14557
  0
VERTEX
  5
17b
  8
Layer_1
  10
498.33392
  20
259.01129
  0
VERTEX
  5
17c
  8
Layer_1
  10
499.37668
  20
257.9256
  0
VERTEX
  5
17d
  8
Layer_1
  10
500.4704
  20
256.8905
  0
VERTEX
  5
17e
  8
Layer_1
  10
501.6131
  20
255.90796
  0
VERTEX
  5
17f
  8
Layer_1
  10
502.80286
  20
254.97992
  0
VERTEX
  5
180
  8
Layer_1
  10
504.0376
  20
254.10837
  0
VERTEX
  5
181
  8
Layer_1
  10
505.31537
  20
253.29523
  0
VERTEX
  5
182
  8
Layer_1
  10
506.63425
  20
252.54251
  0
VERTEX
  5
183
  8
Layer_1
  10
507.99219
  20
251.85217
  0
VERTEX
  5
184
  8
Layer_1
  10
509.38721
  20
251.22617
  0
VERTEX
  5
185
  8
Layer_1
  10
510.81738
  20
250.66644
  0
VERTEX
  5
186
  8
Layer_1
  10
512.2807
  20
250.17499
  0
VERTEX
  5
187
  8
Layer_1
  10
513.77515
  20
249.75372
  0
VERTEX
  5
188
  8
Layer_1
  10
515.29883
  20
249.40466
  0
VERTEX
  5
189
  8
Layer_1
  10
516.84973
  20
249.12976
  0
VERTEX
  5
18a
  8
Layer_1
  10
518.4259
  20
248.93094
  0
VERTEX
  5
18b
  8
Layer_1
  10
520.02527
  20
248.81021
  0
VERTEX
  5
18c
  8
Layer_1
  10
521.646
  20
248.76953
  0
VERTEX
  5
18d
  8
Layer_1
  10
762.86792
  20
248.76953
  0
VERTEX
  5
18e
  8
Layer_1
  10
764.48859
  20
248.81021
  0
VERTEX
  5
18f
  8
Layer_1
  10
766.08801
  20
248.93094
  0
VERTEX
  5
190
  8
Layer_1
  10
767.66418
  20
249.12976
  0
VERTEX
  5
191
  8
Layer_1
  10
769.21509
  20
249.40466
  0
VERTEX
  5
192
  8
Layer_1
  10
770.73877
  20
249.75372
  0
VERTEX
  5
193
  8
Layer_1
  10
772.23328
  20
250.17499
  0
VERTEX
  5
194
  8
Layer_1
  10
773.69659
  20
250.66644
  0
VERTEX
  5
195
  8
Layer_1
  10
775.12677
  20
251.22617
  0
VERTEX
  5
196
  8
Layer_1
  10
776.52185
  20
251.85217
  0
VERTEX
  5
197
  8
Layer_1
  10
777.87976
  20
252.54251
  0
VERTEX
  5
198
  8
Layer_1
  10
779.19867
  20
253.29523
  0
VERTEX
  5
199
  8
Layer_1
  10
780.47644
  20
254.10837
  0
VERTEX
  5
19a
  8
Layer_1
  10
781.71124
  20
254.97992
  0
VERTEX
  5
19b
  8
Layer_1
  10
782.901
  20
255.90796
  0
VERTEX
  5
19c
  8
Layer_1
  10
784.0437
  20
256.8905
  0
VERTEX
  5
19d
  8
Layer_1
  10
785.13745
  20
257.9256
  0
VERTEX
  5
19e
  8
Layer_1
  10
786.18024
  20
259.01129
  0
VERTEX
  5
19f
  8
Layer_1
  10
787.1701
  20
260.14557
  0
VERTEX
  5
1a0
  8
Layer_1
  10
788.10504
  20
261.32648
  0
VERTEX
  5
1a1
  8
Layer_1
  10
788.98309
  20
262.55212
  0
VERTEX
  5
1a2
  8
Layer_1
  10
789.80231
  20
263.82047
  0
VERTEX
  5
1a3
  8
Layer_1
  10
790.56067
  20
265.12958
  0
VERTEX
  5
1a4
  8
Layer_1
  10
791.2561
  20
266.47745
  0
VERTEX
  5
1a5
  8
Layer_1
  10
791.88684
  20
267.86215
  0
VERTEX
  5
1a6
  8
Layer_1
  10
792.45074
  20
269.28174
  0
VERTEX
  5
1a7
  8
Layer_1
  10
792.94586
  20
270.73422
  0
VERTEX
  5
1a8
  8
Layer_1
  10
793.37024
  20
272.21765
  0
VERTEX
  5
1a9
  8
Layer_1
  10
793.72192
  20
273.73007
  0
VERTEX
  5
1aa
  8
Layer_1
  10
793.9989
  20
275.2695
  0
VERTEX
  5
1ab
  8
Layer_1
  10
794.19916
  20
276.83395
  0
VERTEX
  5
1ac
  8
Layer_1
  10
794.3208
  20
278.42151
  0
VERTEX
  5
1ad
  8
Layer_1
  10
794.36176
  20
280.03018
  0
VERTEX
  5
1ae
  8
Layer_1
  10
794.36176
  20
376.06848
  0
VERTEX
  5
1af
  8
Layer_1
  10
794.31964
  20
378.35477
  0
VERTEX
  5
1b0
  8
Layer_1
  10
794.19373
  20
380.6326
  0
VERTEX
  5
1b1
  8
Layer_1
  10
793.98468
  20
382.89984
  0
VERTEX
  5
1b2
  8
Layer_1
  10
793.69312
  20
385.15436
  0
VERTEX
  5
1b3
  8
Layer_1
  10
793.3197
  20
387.39398
  0
VERTEX
  5
1b4
  8
Layer_1
  10
792.86511
  20
389.61652
  0
VERTEX
  5
1b5
  8
Layer_1
  10
792.33002
  20
391.81982
  0
VERTEX
  5
1b6
  8
Layer_1
  10
791.71503
  20
394.00174
  0
VERTEX
  5
1b7
  8
Layer_1
  10
791.02075
  20
396.16013
  0
VERTEX
  5
1b8
  8
Layer_1
  10
790.24792
  20
398.29279
  0
VERTEX
  5
1b9
  8
Layer_1
  10
789.39716
  20
400.39761
  0
VERTEX
  5
1ba
  8
Layer_1
  10
788.46912
  20
402.47241
  0
VERTEX
  5
1bb
  8
Layer_1
  10
787.46448
  20
404.51501
  0
VERTEX
  5
1bc
  8
Layer_1
  10
786.38379
  20
406.52325
  0
VERTEX
  5
1bd
  8
Layer_1
  10
785.22784
  20
408.495
  0
VERTEX
  5
1be
  8
Layer_1
  10
783.99719
  20
410.4281
  0
VERTEX
  5
1bf
  8
Layer_1
  10
781.54523
  20
414.0278
  0
VERTEX
  5
1c0
  8
Layer_1
  10
779.01648
  20
417.54492
  0
VERTEX
  5
1c1
  8
Layer_1
  10
776.41284
  20
420.97906
  0
VERTEX
  5
1c2
  8
Layer_1
  10
773.73596
  20
424.32983
  0
VERTEX
  5
1c3
  8
Layer_1
  10
770.98792
  20
427.59692
  0
VERTEX
  5
1c4
  8
Layer_1
  10
768.17041
  20
430.77985
  0
VERTEX
  5
1c5
  8
Layer_1
  10
765.2854
  20
433.87833
  0
VERTEX
  5
1c6
  8
Layer_1
  10
762.33459
  20
436.89194
  0
VERTEX
  5
1c7
  8
Layer_1
  10
759.31989
  20
439.82031
  0
VERTEX
  5
1c8
  8
Layer_1
  10
756.24316
  20
442.66302
  0
VERTEX
  5
1c9
  8
Layer_1
  10
753.1062
  20
445.4198
  0
VERTEX
  5
1ca
  8
Layer_1
  10
749.91095
  20
448.09015
  0
VERTEX
  5
1cb
  8
Layer_1
  10
746.65918
  20
450.67377
  0
VERTEX
  5
1cc
  8
Layer_1
  10
743.35272
  20
453.17029
  0
VERTEX
  5
1cd
  8
Layer_1
  10
739.99347
  20
455.57925
  0
VERTEX
  5
1ce
  8
Layer_1
  10
736.58325
  20
457.90036
  0
VERTEX
  5
1cf
  8
Layer_1
  10
733.1239
  20
460.13321
  0
VERTEX
  5
1d0
  8
Layer_1
  10
729.61719
  20
462.2774
  0
VERTEX
  5
1d1
  8
Layer_1
  10
726.06512
  20
464.33255
  0
VERTEX
  5
1d2
  8
Layer_1
  10
722.46948
  20
466.29831
  0
VERTEX
  5
1d3
  8
Layer_1
  10
718.83203
  20
468.17432
  0
VERTEX
  5
1d4
  8
Layer_1
  10
715.15472
  20
469.96014
  0
VERTEX
  5
1d5
  8
Layer_1
  10
711.43933
  20
471.65543
  0
VERTEX
  5
1d6
  8
Layer_1
  10
707.68774
  20
473.25983
  0
VERTEX
  5
1d7
  8
Layer_1
  10
703.90173
  20
474.77295
  0
VERTEX
  5
1d8
  8
Layer_1
  10
700.08325
  20
476.19437
  0
VERTEX
  5
1d9
  8
Layer_1
  10
696.23413
  20
477.52377
  0
VERTEX
  5
1da
  8
Layer_1
  10
692.35608
  20
478.76074
  0
VERTEX
  5
1db
  8
Layer_1
  10
688.45111
  20
479.90491
  0
VERTEX
  5
1dc
  8
Layer_1
  10
684.521
  20
480.9559
  0
VERTEX
  5
1dd
  8
Layer_1
  10
680.5675
  20
481.91333
  0
VERTEX
  5
1de
  8
Layer_1
  10
676.59265
  20
482.77686
  0
VERTEX
  5
1df
  8
Layer_1
  10
672.59814
  20
483.54602
  0
VERTEX
  5
1e0
  8
Layer_1
  10
668.58588
  20
484.22052
  0
VERTEX
  5
1e1
  8
Layer_1
  10
664.55768
  20
484.79996
  0
VERTEX
  5
1e2
  8
Layer_1
  10
660.51538
  20
485.28394
  0
VERTEX
  5
1e3
  8
Layer_1
  10
656.46094
  20
485.67212
  0
VERTEX
  5
1e4
  8
Layer_1
  10
652.396
  20
485.96408
  0
VERTEX
  5
1e5
  8
Layer_1
  10
648.32263
  20
486.15945
  0
VERTEX
  5
1e6
  8
Layer_1
  10
644.24249
  20
486.25787
  0
VERTEX
  5
1e7
  8
Layer_1
  10
640.15753
  20
486.25897
  0
VERTEX
  5
1e8
  8
Layer_1
  10
636.06958
  20
486.16235
  0
VERTEX
  5
1e9
  8
Layer_1
  10
631.98041
  20
485.96765
  0
VERTEX
  5
1ea
  8
Layer_1
  10
627.89197
  20
485.67444
  0
VERTEX
  5
1eb
  8
Layer_1
  10
623.80603
  20
485.28241
  0
VERTEX
  5
1ec
  8
Layer_1
  10
619.72443
  20
484.79117
  0
VERTEX
  5
1ed
  8
Layer_1
  10
615.64905
  20
484.20032
  0
VERTEX
  5
1ee
  8
Layer_1
  10
611.58179
  20
483.50946
  0
VERTEX
  5
1ef
  8
Layer_1
  10
607.52441
  20
482.71826
  0
VERTEX
  5
1f0
  8
Layer_1
  10
603.47882
  20
481.82632
  0
VERTEX
  5
1f1
  8
Layer_1
  10
599.44678
  20
480.83325
  0
VERTEX
  5
1f2
  8
Layer_1
  10
595.43018
  20
479.73871
  0
VERTEX
  5
1f3
  8
Layer_1
  10
591.43091
  20
478.5423
  0
VERTEX
  5
1f4
  8
Layer_1
  10
587.45074
  20
477.24365
  0
VERTEX
  5
1f5
  8
Layer_1
  10
583.49158
  20
475.84235
  0
VERTEX
  5
1f6
  8
Layer_1
  10
579.55518
  20
474.33804
  0
VERTEX
  5
1f7
  8
Layer_1
  10
575.64349
  20
472.73038
  0
VERTEX
  5
1f8
  8
Layer_1
  10
571.7583
  20
471.01892
  0
VERTEX
  5
1f9
  8
Layer_1
  10
567.90149
  20
469.20337
  0
VERTEX
  5
1fa
  8
Layer_1
  10
564.07483
  20
467.28326
  0
VERTEX
  5
1fb
  8
Layer_1
  10
560.28027
  20
465.25827
  0
VERTEX
  5
1fc
  8
Layer_1
  10
556.51953
  20
463.12802
  0
VERTEX
  5
1fd
  8
Layer_1
  10
552.79456
  20
460.89209
  0
VERTEX
  5
1fe
  8
Layer_1
  10
549.10718
  20
458.55017
  0
VERTEX
  5
1ff
  8
Layer_1
  10
545.50647
  20
456.13269
  0
VERTEX
  5
200
  8
Layer_1
  10
541.97333
  20
453.62738
  0
VERTEX
  5
201
  8
Layer_1
  10
538.5094
  20
451.03571
  0
VERTEX
  5
202
  8
Layer_1
  10
535.11609
  20
448.35916
  0
VERTEX
  5
203
  8
Layer_1
  10
531.79492
  20
445.59924
  0
VERTEX
  5
204
  8
Layer_1
  10
528.54736
  20
442.75745
  0
VERTEX
  5
205
  8
Layer_1
  10
525.37494
  20
439.83527
  0
VERTEX
  5
206
  8
Layer_1
  10
522.27917
  20
436.83417
  0
VERTEX
  5
207
  8
Layer_1
  10
519.2616
  20
433.75565
  0
VERTEX
  5
208
  8
Layer_1
  10
516.32361
  20
430.60123
  0
VERTEX
  5
209
  8
Layer_1
  10
513.4668
  20
427.37238
  0
VERTEX
  5
20a
  8
Layer_1
  10
510.69263
  20
424.07056
  0
VERTEX
  5
20b
  8
Layer_1
  10
508.00262
  20
420.6973
  0
VERTEX
  5
20c
  8
Layer_1
  10
505.39825
  20
417.25409
  0
VERTEX
  5
20d
  8
Layer_1
  10
502.88104
  20
413.74237
  0
VERTEX
  5
20e
  8
Layer_1
  10
500.45245
  20
410.1637
  0
VERTEX
  5
20f
  8
Layer_1
  10
499.22931
  20
408.23474
  0
VERTEX
  5
210
  8
Layer_1
  10
498.08038
  20
406.26746
  0
VERTEX
  5
211
  8
Layer_1
  10
497.00641
  20
404.26401
  0
VERTEX
  5
212
  8
Layer_1
  10
496.00797
  20
402.22659
  0
VERTEX
  5
213
  8
Layer_1
  10
495.08569
  20
400.15729
  0
VERTEX
  5
214
  8
Layer_1
  10
494.24023
  20
398.05823
  0
VERTEX
  5
215
  8
Layer_1
  10
493.47226
  20
395.93158
  0
VERTEX
  5
216
  8
Layer_1
  10
492.78241
  20
393.77948
  0
VERTEX
  5
217
  8
Layer_1
  10
492.17133
  20
391.60406
  0
VERTEX
  5
218
  8
Layer_1
  10
491.63959
  20
389.40744
  0
VERTEX
  5
219
  8
Layer_1
  10
491.18793
  20
387.19177
  0
VERTEX
  5
21a
  8
Layer_1
  10
490.81693
  20
384.95923
  0
VERTEX
  5
21b
  8
Layer_1
  10
490.52725
  20
382.71191
  0
VERTEX
  5
21c
  8
Layer_1
  10
490.31955
  20
380.45193
  0
VERTEX
  5
21d
  8
Layer_1
  10
490.19446
  20
378.18149
  0
VERTEX
  5
21e
  8
Layer_1
  10
490.15262
  20
375.90268
  0
VERTEX
  5
21f
  8
Layer_1
  10
490.15262
  20
280.03021
  0
SEQEND
  0
POLYLINE
  5
221
  8
Layer_2
  62
0
  70
1
  66
1
  10
0
  20
0
  30
0
  0
VERTEX
  5
221
  8
Layer_2
  10
344.45526
  20
45.862366
  0
VERTEX
  5
222
  8
Layer_2
  10
329.27405
  20
45.862366
  0
VERTEX
  5
223
  8
Layer_2
  10
329.27405
  20
41.036743
  0
VERTEX
  5
224
  8
Layer_2
  10
344.45526
  20
41.036743
  0
VERTEX
  5
225
  8
Layer_2
  10
344.45526
  20
45.862366
  0
SEQEND
  0
POLYLINE
  5
227
  8
Layer_2
  62
0
  70
1
  66
1
  10
0
  20
0
  30
0
  0
VERTEX
  5
227
  8
Layer_2
  10
447.98969
  20
45.862366
  0
VERTEX
  5
228
  8
Layer_2
  10
432.8085
  20
45.862366
  0
VERTEX
  5
229
  8
Layer_2
  10
432.8085
  20
41.036743
  0
VERTEX
  5
22a
  8
Layer_2
  10
447.98969
  20
41.036743
  0
VERTEX
  5
22b
  8
Layer_2
  10
447.98969
  20
45.862366
  0
SEQEND
  0
POLYLINE
  5
22d
  8
Layer_2
  62
0
  70
1
  66
1
  10
0
  20
0
  30
0
  0
VERTEX
  5
22d
  8
Layer_2
  10
225.73969
  20
41.036743
  0
VERTEX
  5
22e
  8
Layer_2
  10
240.9209
  20
41.036743
  0
VERTEX
  5
22f
  8
Layer_2
  10
240.9209
  20
45.862366
  0
VERTEX
  5
230
  8
Layer_2
  10
225.73969
  20
45.862366
  0
VERTEX
  5
231
  8
Layer_2
  10
225.73969
  20
41.036743
  0
SEQEND
  0
POLYLINE
  5
233
  8
Layer_2
  62
0
  70
1
  66
1
  10
0
  20
0
  30
0
  0
VERTEX
  5
233
  8
Layer_2
  10
184.75958
  20
41.884216
  0
VERTEX
  5
234
  8
Layer_2
  10
184.8006
  20
40.275513
  0
VERTEX
  5
235
  8
Layer_2
  10
184.92218
  20
38.687988
  0
VERTEX
  5
236
  8
Layer_2
  10
185.12244
  20
37.123535
  0
VERTEX
  5
237
  8
Layer_2
  10
185.39941
  20
35.584106
  0
VERTEX
  5
238
  8
Layer_2
  10
185.75104
  20
34.071716
  0
VERTEX
  5
239
  8
Layer_2
  10
186.17542
  20
32.588257
  0
VERTEX
  5
23a
  8
Layer_2
  10
186.67053
  20
31.135742
  0
VERTEX
  5
23b
  8
Layer_2
  10
187.23444
  20
29.716187
  0
VERTEX
  5
23c
  8
Layer_2
  10
187.86511
  20
28.331421
  0
VERTEX
  5
23d
  8
Layer_2
  10
188.56061
  20
26.983521
  0
VERTEX
  5
23e
  8
Layer_2
  10
189.31891
  20
25.674438
  0
VERTEX
  5
23f
  8
Layer_2
  10
190.13806
  20
24.406128
  0
VERTEX
  5
240
  8
Layer_2
  10
191.01617
  20
23.180481
  0
VERTEX
  5
241
  8
Layer_2
  10
191.95105
  20
21.999512
  0
VERTEX
  5
242
  8
Layer_2
  10
192.94086
  20
20.865234
  0
VERTEX
  5
243
  8
Layer_2
  10
193.98364
  20
19.779602
  0
VERTEX
  5
244
  8
Layer_2
  10
195.07733
  20
18.744507
  0
VERTEX
  5
245
  8
Layer_2
  10
196.22003
  20
17.761963
  0
VERTEX
  5
246
  8
Layer_2
  10
197.40973
  20
16.833984
  0
VERTEX
  5
247
  8
Layer_2
  10
198.64453
  20
15.962402
  0
VERTEX
  5
248
  8
Layer_2
  10
199.9223
  20
15.149292
  0
VERTEX
  5
249
  8
Layer_2
  10
201.24115
  20
14.396545
  0
VERTEX
  5
24a
  8
Layer_2
  10
202.59912
  20
13.706177
  0
VERTEX
  5
24b
  8
Layer_2
  10
203.99414
  20
13.0802
  0
VERTEX
  5
24c
  8
Layer_2
  10
205.42432
  20
12.520386
  0
VERTEX
  5
24d
  8
Layer_2
  10
206.88763
  20
12.028931
  0
VERTEX
  5
24e
  8
Layer_2
  10
208.38214
  20
11.607727
  0
VERTEX
  5
24f
  8
Layer_2
  10
209.90582
  20
11.258667
  0
VERTEX
  5
250
  8
Layer_2
  10
211.45667
  20
10.983765
  0
VERTEX
  5
251
  8
Layer_2
  10
213.03278
  20
10.784912
  0
VERTEX
  5
252
  8
Layer_2
  10
214.63226
  20
10.664185
  0
VERTEX
  5
253
  8
Layer_2
  10
216.25293
  20
10.623535
  0
VERTEX
  5
254
  8
Layer_2
  10
457.47488
  20
10.623535
  0
VERTEX
  5
255
  8
Layer_2
  10
459.09558
  20
10.664185
  0
VERTEX
  5
256
  8
Layer_2
  10
460.69498
  20
10.784912
  0
VERTEX
  5
257
  8
Layer_2
  10
462.27112
  20
10.983765
  0
VERTEX
  5
258
  8
Layer_2
  10
463.82202
  20
11.258667
  0
VERTEX
  5
259
  8
Layer_2
  10
465.34573
  20
11.607727
  0
VERTEX
  5
25a
  8
Layer_2
  10
466.84021
  20
12.028931
  0
VERTEX
  5
25b
  8
Layer_2
  10
468.30353
  20
12.520386
  0
VERTEX
  5
25c
  8
Layer_2
  10
469.73373
  20
13.0802
  0
VERTEX
  5
25d
  8
Layer_2
  10
471.12881
  20
13.706177
  0
VERTEX
  5
25e
  8
Layer_2
  10
472.48676
  20
14.396545
  0
VERTEX
  5
25f
  8
Layer_2
  10
473.8056
  20
15.149292
  0
VERTEX
  5
260
  8
Layer_2
  10
475.0834
  20
15.962402
  0
VERTEX
  5
261
  8
Layer_2
  10
476.31818
  20
16.833984
  0
VERTEX
  5
262
  8
Layer_2
  10
477.5079
  20
17.761963
  0
VERTEX
  5
263
  8
Layer_2
  10
478.65063
  20
18.744507
  0
VERTEX
  5
264
  8
Layer_2
  10
479.74442
  20
19.779602
  0
VERTEX
  5
265
  8
Layer_2
  10
480.78723
  20
20.865234
  0
VERTEX
  5
266
  8
Layer_2
  10
481.7771
  20
21.999512
  0
VERTEX
  5
267
  8
Layer_2
  10
482.71204
  20
23.180481
  0
VERTEX
  5
268
  8
Layer_2
  10
483.59009
  20
24.406128
  0
VERTEX
  5
269
  8
Layer_2
  10
484.40927
  20
25.674438
  0
VERTEX
  5
26a
  8
Layer_2
  10
485.1676
  20
26.983521
  0
VERTEX
  5
26b
  8
Layer_2
  10
485.8631
  20
28.331421
  0
VERTEX
  5
26c
  8
Layer_2
  10
486.49377
  20
29.716187
  0
VERTEX
  5
26d
  8
Layer_2
  10
487.05768
  20
31.135742
  0
VERTEX
  5
26e
  8
Layer_2
  10
487.55283
  20
32.588257
  0
VERTEX
  5
26f
  8
Layer_2
  10
487.97723
  20
34.071716
  0
VERTEX
  5
270
  8
Layer_2
  10
488.32889
  20
35.584106
  0
VERTEX
  5
271
  8
Layer_2
  10
488.60583
  20
37.123535
  0
VERTEX
  5
272
  8
Layer_2
  10
488.80612
  20
38.687988
  0
VERTEX
  5
273
  8
Layer_2
  10
488.92773
  20
40.275513
  0
VERTEX
  5
274
  8
Layer_2
  10
488.96872
  20
41.884216
  0
VERTEX
  5
275
  8
Layer_2
  10
488.96872
  20
137.92249
  0
VERTEX
  5
276
  8
Layer_2
  10
488.92661
  20
140.20877
  0
VERTEX
  5
277
  8
Layer_2
  10
488.80069
  20
142.48663
  0
VERTEX
  5
278
  8
Layer_2
  10
488.59164
  20
144.75388
  0
VERTEX
  5
279
  8
Layer_2
  10
488.30008
  20
147.00839
  0
VERTEX
  5
27a
  8
Layer_2
  10
487.92667
  20
149.24799
  0
VERTEX
  5
27b
  8
Layer_2
  10
487.47211
  20
151.47052
  0
VERTEX
  5
27c
  8
Layer_2
  10
486.93698
  20
153.67383
  0
VERTEX
  5
27d
  8
Layer_2
  10
486.32196
  20
155.85577
  0
VERTEX
  5
27e
  8
Layer_2
  10
485.62769
  20
158.01416
  0
VERTEX
  5
27f
  8
Layer_2
  10
484.85486
  20
160.14685
  0
VERTEX
  5
280
  8
Layer_2
  10
484.00412
  20
162.25165
  0
VERTEX
  5
281
  8
Layer_2
  10
483.07608
  20
164.32642
  0
VERTEX
  5
282
  8
Layer_2
  10
482.07141
  20
166.36899
  0
VERTEX
  5
283
  8
Layer_2
  10
480.99078
  20
168.37726
  0
VERTEX
  5
284
  8
Layer_2
  10
479.83481
  20
170.349
  0
VERTEX
  5
285
  8
Layer_2
  10
478.60416
  20
172.2821
  0
VERTEX
  5
286
  8
Layer_2
  10
476.15222
  20
175.88181
  0
VERTEX
  5
287
  8
Layer_2
  10
473.62347
  20
179.39893
  0
VERTEX
  5
288
  8
Layer_2
  10
471.01978
  20
182.83304
  0
VERTEX
  5
289
  8
Layer_2
  10
468.34296
  20
186.18384
  0
VERTEX
  5
28a
  8
Layer_2
  10
465.59491
  20
189.45087
  0
VERTEX
  5
28b
  8
Layer_2
  10
462.7774
  20
192.63385
  0
VERTEX
  5
28c
  8
Layer_2
  10
459.89233
  20
195.73233
  0
VERTEX
  5
28d
  8
Layer_2
  10
456.94153
  20
198.74597
  0
VERTEX
  5
28e
  8
Layer_2
  10
453.92685
  20
201.67432
  0
VERTEX
  5
28f
  8
Layer_2
  10
450.85013
  20
204.51709
  0
VERTEX
  5
290
  8
Layer_2
  10
447.71323
  20
207.2738
  0
VERTEX
  5
291
  8
Layer_2
  10
444.51794
  20
209.94421
  0
VERTEX
  5
292
  8
Layer_2
  10
441.26617
  20
212.5278
  0
VERTEX
  5
293
  8
Layer_2
  10
437.95972
  20
215.02429
  0
VERTEX
  5
294
  8
Layer_2
  10
434.60046
  20
217.43326
  0
VERTEX
  5
295
  8
Layer_2
  10
431.19022
  20
219.75436
  0
VERTEX
  5
296
  8
Layer_2
  10
427.73087
  20
221.98721
  0
VERTEX
  5
297
  8
Layer_2
  10
424.22421
  20
224.13141
  0
VERTEX
  5
298
  8
Layer_2
  10
420.67212
  20
226.18658
  0
VERTEX
  5
299
  8
Layer_2
  10
417.07648
  20
228.15231
  0
VERTEX
  5
29a
  8
Layer_2
  10
413.43903
  20
230.02829
  0
VERTEX
  5
29b
  8
Layer_2
  10
409.76172
  20
231.81412
  0
VERTEX
  5
29c
  8
Layer_2
  10
406.04633
  20
233.50946
  0
VERTEX
  5
29d
  8
Layer_2
  10
402.29474
  20
235.11383
  0
VERTEX
  5
29e
  8
Layer_2
  10
398.50879
  20
236.62695
  0
VERTEX
  5
29f
  8
Layer_2
  10
394.69031
  20
238.0484
  0
VERTEX
  5
2a0
  8
Layer_2
  10
390.84113
  20
239.37781
  0
VERTEX
  5
2a1
  8
Layer_2
  10
386.96307
  20
240.61475
  0
VERTEX
  5
2a2
  8
Layer_2
  10
383.05811
  20
241.75891
  0
VERTEX
  5
2a3
  8
Layer_2
  10
379.12799
  20
242.80991
  0
VERTEX
  5
2a4
  8
Layer_2
  10
375.17456
  20
243.76733
  0
VERTEX
  5
2a5
  8
Layer_2
  10
371.19965
  20
244.63086
  0
VERTEX
  5
2a6
  8
Layer_2
  10
367.20514
  20
245.40005
  0
VERTEX
  5
2a7
  8
Layer_2
  10
363.19281
  20
246.07458
  0
VERTEX
  5
2a8
  8
Layer_2
  10
359.16461
  20
246.65399
  0
VERTEX
  5
2a9
  8
Layer_2
  10
355.12238
  20
247.13797
  0
VERTEX
  5
2aa
  8
Layer_2
  10
351.06787
  20
247.52609
  0
VERTEX
  5
2ab
  8
Layer_2
  10
347.00299
  20
247.81808
  0
VERTEX
  5
2ac
  8
Layer_2
  10
342.92963
  20
248.01346
  0
VERTEX
  5
2ad
  8
Layer_2
  10
338.84943
  20
248.11191
  0
VERTEX
  5
2ae
  8
Layer_2
  10
334.76447
  20
248.11301
  0
VERTEX
  5
2af
  8
Layer_2
  10
330.67651
  20
248.01639
  0
VERTEX
  5
2b0
  8
Layer_2
  10
326.58734
  20
247.82166
  0
VERTEX
  5
2b1
  8
Layer_2
  10
322.4989
  20
247.52844
  0
VERTEX
  5
2b2
  8
Layer_2
  10
318.41296
  20
247.13641
  0
VERTEX
  5
2b3
  8
Layer_2
  10
314.33142
  20
246.64514
  0
VERTEX
  5
2b4
  8
Layer_2
  10
310.25604
  20
246.05429
  0
VERTEX
  5
2b5
  8
Layer_2
  10
306.18878
  20
245.36346
  0
VERTEX
  5
2b6
  8
Layer_2
  10
302.13141
  20
244.57227
  0
VERTEX
  5
2b7
  8
Layer_2
  10
298.08575
  20
243.68033
  0
VERTEX
  5
2b8
  8
Layer_2
  10
294.05377
  20
242.68726
  0
VERTEX
  5
2b9
  8
Layer_2
  10
290.03717
  20
241.59271
  0
VERTEX
  5
2ba
  8
Layer_2
  10
286.03784
  20
240.3963
  0
VERTEX
  5
2bb
  8
Layer_2
  10
282.05768
  20
239.09763
  0
VERTEX
  5
2bc
  8
Layer_2
  10
278.09857
  20
237.69635
  0
VERTEX
  5
2bd
  8
Layer_2
  10
274.16211
  20
236.19205
  0
VERTEX
  5
2be
  8
Layer_2
  10
270.25043
  20
234.58438
  0
VERTEX
  5
2bf
  8
Layer_2
  10
266.36523
  20
232.87296
  0
VERTEX
  5
2c0
  8
Layer_2
  10
262.50836
  20
231.05737
  0
VERTEX
  5
2c1
  8
Layer_2
  10
258.68176
  20
229.13727
  0
VERTEX
  5
2c2
  8
Layer_2
  10
254.88715
  20
227.11227
  0
VERTEX
  5
2c3
  8
Layer_2
  10
251.12646
  20
224.98199
  0
VERTEX
  5
2c4
  8
Layer_2
  10
247.40155
  20
222.74609
  0
VERTEX
  5
2c5
  8
Layer_2
  10
243.71411
  20
220.40417
  0
VERTEX
  5
2c6
  8
Layer_2
  10
240.1134
  20
217.98669
  0
VERTEX
  5
2c7
  8
Layer_2
  10
236.58032
  20
215.48138
  0
VERTEX
  5
2c8
  8
Layer_2
  10
233.11639
  20
212.88971
  0
VERTEX
  5
2c9
  8
Layer_2
  10
229.72308
  20
210.2132
  0
VERTEX
  5
2ca
  8
Layer_2
  10
226.40192
  20
207.45325
  0
VERTEX
  5
2cb
  8
Layer_2
  10
223.15436
  20
204.61145
  0
VERTEX
  5
2cc
  8
Layer_2
  10
219.98199
  20
201.68927
  0
VERTEX
  5
2cd
  8
Layer_2
  10
216.88617
  20
198.68817
  0
VERTEX
  5
2ce
  8
Layer_2
  10
213.86859
  20
195.60965
  0
VERTEX
  5
2cf
  8
Layer_2
  10
210.9306
  20
192.45523
  0
VERTEX
  5
2d0
  8
Layer_2
  10
208.07379
  20
189.22638
  0
VERTEX
  5
2d1
  8
Layer_2
  10
205.29956
  20
185.92456
  0
VERTEX
  5
2d2
  8
Layer_2
  10
202.60956
  20
182.5513
  0
VERTEX
  5
2d3
  8
Layer_2
  10
200.00519
  20
179.10809
  0
VERTEX
  5
2d4
  8
Layer_2
  10
197.48798
  20
175.59637
  0
VERTEX
  5
2d5
  8
Layer_2
  10
195.05939
  20
172.0177
  0
VERTEX
  5
2d6
  8
Layer_2
  10
193.83624
  20
170.08871
  0
VERTEX
  5
2d7
  8
Layer_2
  10
192.68738
  20
168.12146
  0
VERTEX
  5
2d8
  8
Layer_2
  10
191.61334
  20
166.11804
  0
VERTEX
  5
2d9
  8
Layer_2
  10
190.61493
  20
164.0806
  0
VERTEX
  5
2da
  8
Layer_2
  10
189.69269
  20
162.01129
  0
VERTEX
  5
2db
  8
Layer_2
  10
188.84723
  20
159.91223
  0
VERTEX
  5
2dc
  8
Layer_2
  10
188.07928
  20
157.78558
  0
VERTEX
  5
2dd
  8
Layer_2
  10
187.3894
  20
155.63348
  0
VERTEX
  5
2de
  8
Layer_2
  10
186.77826
  20
153.45807
  0
VERTEX
  5
2df
  8
Layer_2
  10
186.24652
  20
151.26147
  0
VERTEX
  5
2e0
  8
Layer_2
  10
185.79486
  20
149.04581
  0
VERTEX
  5
2e1
  8
Layer_2
  10
185.42389
  20
146.81326
  0
VERTEX
  5
2e2
  8
Layer_2
  10
185.13422
  20
144.56592
  0
VERTEX
  5
2e3
  8
Layer_2
  10
184.92651
  20
142.30597
  0
VERTEX
  5
2e4
  8
Layer_2
  10
184.80145
  20
140.03549
  0
VERTEX
  5
2e5
  8
Layer_2
  10
184.75958
  20
137.75668
  0
VERTEX
  5
2e6
  8
Layer_2
  10
184.75958
  20
41.884216
  0
SEQEND
  0
POLYLINE
  5
2e8
  8
Layer_2
  62
0
  70
1
  66
1
  10
0
  20
0
  30
0
  0
VERTEX
  5
2e8
  8
Layer_2
  10
649.84729
  20
45.860718
  0
VERTEX
  5
2e9
  8
Layer_2
  10
634.66608
  20
45.860718
  0
VERTEX
  5
2ea
  8
Layer_2
  10
634.66608
  20
41.035828
  0
VERTEX
  5
2eb
  8
Layer_2
  10
649.84729
  20
41.035828
  0
VERTEX
  5
2ec
  8
Layer_2
  10
649.84729
  20
45.860718
  0
SEQEND
  0
POLYLINE
  5
2ee
  8
Layer_2
  62
0
  70
1
  66
1
  10
0
  20
0
  30
0
  0
VERTEX
  5
2ee
  8
Layer_2
  10
753.38171
  20
45.860718
  0
VERTEX
  5
2ef
  8
Layer_2
  10
738.2005
  20
45.860718
  0
VERTEX
  5
2f0
  8
Layer_2
  10
738.2005
  20
41.035828
  0
VERTEX
  5
2f1
  8
Layer_2
  10
753.38171
  20
41.035828
  0
VERTEX
  5
2f2
  8
Layer_2
  10
753.38171
  20
45.860718
  0
SEQEND
  0
POLYLINE
  5
2f4
  8
Layer_2
  62
0
  70
1
  66
1
  10
0
  20
0
  30
0
  0
VERTEX
  5
2f4
  8
Layer_2
  10
531.13171
  20
41.035828
  0
VERTEX
  5
2f5
  8
Layer_2
  10
546.31287
  20
41.035828
  0
VERTEX
  5
2f6
  8
Layer_2
  10
546.31287
  20
45.860718
  0
VERTEX
  5
2f7
  8
Layer_2
  10
531.13171
  20
45.860718
  0
VERTEX
  5
2f8
  8
Layer_2
  10
531.13171
  20
41.035828
  0
SEQEND
  0
POLYLINE
  5
2fa
  8
Layer_2
  62
0
  70
1
  66
1
  10
0
  20
0
  30
0
  0
VERTEX
  5
2fa
  8
Layer_2
  10
490.15161
  20
41.884216
  0
VERTEX
  5
2fb
  8
Layer_2
  10
490.19257
  20
40.275513
  0
VERTEX
  5
2fc
  8
Layer_2
  10
490.31421
  20
38.687988
  0
VERTEX
  5
2fd
  8
Layer_2
  10
490.51447
  20
37.123535
  0
VERTEX
  5
2fe
  8
Layer_2
  10
490.79144
  20
35.584106
  0
VERTEX
  5
2ff
  8
Layer_2
  10
491.14307
  20
34.071716
  0
VERTEX
  5
300
  8
Layer_2
  10
491.56744
  20
32.588257
  0
VERTEX
  5
301
  8
Layer_2
  10
492.06259
  20
31.135742
  0
VERTEX
  5
302
  8
Layer_2
  10
492.62646
  20
29.716187
  0
VERTEX
  5
303
  8
Layer_2
  10
493.25714
  20
28.331421
  0
VERTEX
  5
304
  8
Layer_2
  10
493.95264
  20
26.983521
  0
VERTEX
  5
305
  8
Layer_2
  10
494.71094
  20
25.674438
  0
VERTEX
  5
306
  8
Layer_2
  10
495.53009
  20
24.406128
  0
VERTEX
  5
307
  8
Layer_2
  10
496.40811
  20
23.180481
  0
VERTEX
  5
308
  8
Layer_2
  10
497.34305
  20
21.999512
  0
VERTEX
  5
309
  8
Layer_2
  10
498.33289
  20
20.865234
  0
VERTEX
  5
30a
  8
Layer_2
  10
499.37567
  20
19.779602
  0
VERTEX
  5
30b
  8
Layer_2
  10
500.46942
  20
18.744507
  0
VERTEX
  5
30c
  8
Layer_2
  10
501.61212
  20
17.761963
  0
VERTEX
  5
30d
  8
Layer_2
  10
502.80185
  20
16.833984
  0
VERTEX
  5
30e
  8
Layer_2
  10
504.03659
  20
15.962402
  0
VERTEX
  5
30f
  8
Layer_2
  10
505.31436
  20
15.149292
  0
VERTEX
  5
310
  8
Layer_2
  10
506.63321
  20
14.396545
  0
VERTEX
  5
311
  8
Layer_2
  10
507.99115
  20
13.706177
  0
VERTEX
  5
312
  8
Layer_2
  10
509.38617
  20
13.0802
  0
VERTEX
  5
313
  8
Layer_2
  10
510.81635
  20
12.520386
  0
VERTEX
  5
314
  8
Layer_2
  10
512.27966
  20
12.028931
  0
VERTEX
  5
315
  8
Layer_2
  10
513.77417
  20
11.607727
  0
VERTEX
  5
316
  8
Layer_2
  10
515.29785
  20
11.258667
  0
VERTEX
  5
317
  8
Layer_2
  10
516.84875
  20
10.983765
  0
VERTEX
  5
318
  8
Layer_2
  10
518.42493
  20
10.784912
  0
VERTEX
  5
319
  8
Layer_2
  10
520.02429
  20
10.664185
  0
VERTEX
  5
31a
  8
Layer_2
  10
521.64496
  20
10.623535
  0
VERTEX
  5
31b
  8
Layer_2
  10
762.86694
  20
10.623535
  0
VERTEX
  5
31c
  8
Layer_2
  10
764.48761
  20
10.664185
  0
VERTEX
  5
31d
  8
Layer_2
  10
766.08704
  20
10.784912
  0
VERTEX
  5
31e
  8
Layer_2
  10
767.66315
  20
10.983765
  0
VERTEX
  5
31f
  8
Layer_2
  10
769.21405
  20
11.258667
  0
VERTEX
  5
320
  8
Layer_2
  10
770.73773
  20
11.607727
  0
VERTEX
  5
321
  8
Layer_2
  10
772.23224
  20
12.028931
  0
VERTEX
  5
322
  8
Layer_2
  10
773.69556
  20
12.520386
  0
VERTEX
  5
323
  8
Layer_2
  10
775.12573
  20
13.0802
  0
VERTEX
  5
324
  8
Layer_2
  10
776.52081
  20
13.706177
  0
VERTEX
  5
325
  8
Layer_2
  10
777.87878
  20
14.396545
  0
VERTEX
  5
326
  8
Layer_2
  10
779.19763
  20
15.149292
  0
VERTEX
  5
327
  8
Layer_2
  10
780.47546
  20
15.962402
  0
VERTEX
  5
328
  8
Layer_2
  10
781.71021
  20
16.833984
  0
VERTEX
  5
329
  8
Layer_2
  10
782.89996
  20
17.761963
  0
VERTEX
  5
32a
  8
Layer_2
  10
784.04272
  20
18.744507
  0
VERTEX
  5
32b
  8
Layer_2
  10
785.13647
  20
19.779602
  0
VERTEX
  5
32c
  8
Layer_2
  10
786.17926
  20
20.865234
  0
VERTEX
  5
32d
  8
Layer_2
  10
787.16913
  20
21.999512
  0
VERTEX
  5
32e
  8
Layer_2
  10
788.10406
  20
23.180481
  0
VERTEX
  5
32f
  8
Layer_2
  10
788.98212
  20
24.406128
  0
VERTEX
  5
330
  8
Layer_2
  10
789.80127
  20
25.674438
  0
VERTEX
  5
331
  8
Layer_2
  10
790.55963
  20
26.983521
  0
VERTEX
  5
332
  8
Layer_2
  10
791.25513
  20
28.331421
  0
VERTEX
  5
333
  8
Layer_2
  10
791.8858
  20
29.716187
  0
VERTEX
  5
334
  8
Layer_2
  10
792.44971
  20
31.135742
  0
VERTEX
  5
335
  8
Layer_2
  10
792.94482
  20
32.588257
  0
VERTEX
  5
336
  8
Layer_2
  10
793.36926
  20
34.071716
  0
VERTEX
  5
337
  8
Layer_2
  10
793.72089
  20
35.584106
  0
VERTEX
  5
338
  8
Layer_2
  10
793.99786
  20
37.123535
  0
VERTEX
  5
339
  8
Layer_2
  10
794.19812
  20
38.687988
  0
VERTEX
  5
33a
  8
Layer_2
  10
794.31976
  20
40.275513
  0
VERTEX
  5
33b
  8
Layer_2
  10
794.36072
  20
41.884216
  0
VERTEX
  5
33c
  8
Layer_2
  10
794.36072
  20
137.92249
  0
VERTEX
  5
33d
  8
Layer_2
  10
794.3186
  20
140.20877
  0
VERTEX
  5
33e
  8
Layer_2
  10
794.19275
  20
142.48663
  0
VERTEX
  5
33f
  8
Layer_2
  10
793.98364
  20
144.75388
  0
VERTEX
  5
340
  8
Layer_2
  10
793.69214
  20
147.00839
  0
VERTEX
  5
341
  8
Layer_2
  10
793.31873
  20
149.24799
  0
VERTEX
  5
342
  8
Layer_2
  10
792.86414
  20
151.47052
  0
VERTEX
  5
343
  8
Layer_2
  10
792.32898
  20
153.67383
  0
VERTEX
  5
344
  8
Layer_2
  10
791.71399
  20
155.85577
  0
VERTEX
  5
345
  8
Layer_2
  10
791.01978
  20
158.01416
  0
VERTEX
  5
346
  8
Layer_2
  10
790.24695
  20
160.14685
  0
VERTEX
  5
347
  8
Layer_2
  10
789.39618
  20
162.25165
  0
VERTEX
  5
348
  8
Layer_2
  10
788.46814
  20
164.32642
  0
VERTEX
  5
349
  8
Layer_2
  10
787.46344
  20
166.36899
  0
VERTEX
  5
34a
  8
Layer_2
  10
786.38281
  20
168.37726
  0
VERTEX
  5
34b
  8
Layer_2
  10
785.22681
  20
170.349
  0
VERTEX
  5
34c
  8
Layer_2
  10
783.99622
  20
172.2821
  0
VERTEX
  5
34d
  8
Layer_2
  10
781.54425
  20
175.88181
  0
VERTEX
  5
34e
  8
Layer_2
  10
779.0155
  20
179.39893
  0
VERTEX
  5
34f
  8
Layer_2
  10
776.4118
  20
182.83304
  0
VERTEX
  5
350
  8
Layer_2
  10
773.73499
  20
186.18384
  0
VERTEX
  5
351
  8
Layer_2
  10
770.98694
  20
189.45087
  0
VERTEX
  5
352
  8
Layer_2
  10
768.16943
  20
192.63385
  0
VERTEX
  5
353
  8
Layer_2
  10
765.28436
  20
195.73233
  0
VERTEX
  5
354
  8
Layer_2
  10
762.33356
  20
198.74597
  0
VERTEX
  5
355
  8
Layer_2
  10
759.31885
  20
201.67432
  0
VERTEX
  5
356
  8
Layer_2
  10
756.24213
  20
204.51709
  0
VERTEX
  5
357
  8
Layer_2
  10
753.10522
  20
207.2738
  0
VERTEX
  5
358
  8
Layer_2
  10
749.90991
  20
209.94421
  0
VERTEX
  5
359
  8
Layer_2
  10
746.65814
  20
212.5278
  0
VERTEX
  5
35a
  8
Layer_2
  10
743.35168
  20
215.02429
  0
VERTEX
  5
35b
  8
Layer_2
  10
739.99243
  20
217.43326
  0
VERTEX
  5
35c
  8
Layer_2
  10
736.58221
  20
219.75436
  0
VERTEX
  5
35d
  8
Layer_2
  10
733.12286
  20
221.98721
  0
VERTEX
  5
35e
  8
Layer_2
  10
729.61621
  20
224.13141
  0
VERTEX
  5
35f
  8
Layer_2
  10
726.06415
  20
226.18658
  0
VERTEX
  5
360
  8
Layer_2
  10
722.46844
  20
228.15231
  0
VERTEX
  5
361
  8
Layer_2
  10
718.83105
  20
230.02829
  0
VERTEX
  5
362
  8
Layer_2
  10
715.15369
  20
231.81412
  0
VERTEX
  5
363
  8
Layer_2
  10
711.43835
  20
233.50946
  0
VERTEX
  5
364
  8
Layer_2
  10
707.68677
  20
235.11383
  0
VERTEX
  5
365
  8
Layer_2
  10
703.90076
  20
236.62695
  0
VERTEX
  5
366
  8
Layer_2
  10
700.08228
  20
238.0484
  0
VERTEX
  5
367
  8
Layer_2
  10
696.23309
  20
239.37781
  0
VERTEX
  5
368
  8
Layer_2
  10
692.3551
  20
240.61475
  0
VERTEX
  5
369
  8
Layer_2
  10
688.45007
  20
241.75891
  0
VERTEX
  5
36a
  8
Layer_2
  10
684.51996
  20
242.80991
  0
VERTEX
  5
36b
  8
Layer_2
  10
680.56653
  20
243.76733
  0
VERTEX
  5
36c
  8
Layer_2
  10
676.59161
  20
244.63086
  0
VERTEX
  5
36d
  8
Layer_2
  10
672.59717
  20
245.40005
  0
VERTEX
  5
36e
  8
Layer_2
  10
668.58484
  20
246.07458
  0
VERTEX
  5
36f
  8
Layer_2
  10
664.55664
  20
246.65399
  0
VERTEX
  5
370
  8
Layer_2
  10
660.5144
  20
247.13797
  0
VERTEX
  5
371
  8
Layer_2
  10
656.4599
  20
247.52609
  0
VERTEX
  5
372
  8
Layer_2
  10
652.39502
  20
247.81808
  0
VERTEX
  5
373
  8
Layer_2
  10
648.32159
  20
248.01346
  0
VERTEX
  5
374
  8
Layer_2
  10
644.24146
  20
248.11191
  0
VERTEX
  5
375
  8
Layer_2
  10
640.15649
  20
248.11301
  0
VERTEX
  5
376
  8
Layer_2
  10
636.06848
  20
248.01639
  0
VERTEX
  5
377
  8
Layer_2
  10
631.97937
  20
247.82166
  0
VERTEX
  5
378
  8
Layer_2
  10
627.89093
  20
247.52844
  0
VERTEX
  5
379
  8
Layer_2
  10
623.80499
  20
247.13641
  0
VERTEX
  5
37a
  8
Layer_2
  10
619.72345
  20
246.64514
  0
VERTEX
  5
37b
  8
Layer_2
  10
615.64807
  20
246.05429
  0
VERTEX
  5
37c
  8
Layer_2
  10
611.58081
  20
245.36346
  0
VERTEX
  5
37d
  8
Layer_2
  10
607.52344
  20
244.57227
  0
VERTEX
  5
37e
  8
Layer_2
  10
603.47778
  20
243.68033
  0
VERTEX
  5
37f
  8
Layer_2
  10
599.4458
  20
242.68726
  0
VERTEX
  5
380
  8
Layer_2
  10
595.4292
  20
241.59271
  0
VERTEX
  5
381
  8
Layer_2
  10
591.42993
  20
240.3963
  0
VERTEX
  5
382
  8
Layer_2
  10
587.44977
  20
239.09763
  0
VERTEX
  5
383
  8
Layer_2
  10
583.49054
  20
237.69635
  0
VERTEX
  5
384
  8
Layer_2
  10
579.5542
  20
236.19205
  0
VERTEX
  5
385
  8
Layer_2
  10
575.64246
  20
234.58438
  0
VERTEX
  5
386
  8
Layer_2
  10
571.75726
  20
232.87296
  0
VERTEX
  5
387
  8
Layer_2
  10
567.90039
  20
231.05737
  0
VERTEX
  5
388
  8
Layer_2
  10
564.07379
  20
229.13727
  0
VERTEX
  5
389
  8
Layer_2
  10
560.27917
  20
227.11227
  0
VERTEX
  5
38a
  8
Layer_2
  10
556.51849
  20
224.98199
  0
VERTEX
  5
38b
  8
Layer_2
  10
552.79352
  20
222.74609
  0
VERTEX
  5
38c
  8
Layer_2
  10
549.10614
  20
220.40417
  0
VERTEX
  5
38d
  8
Layer_2
  10
545.50537
  20
217.98669
  0
VERTEX
  5
38e
  8
Layer_2
  10
541.97229
  20
215.48138
  0
VERTEX
  5
38f
  8
Layer_2
  10
538.50836
  20
212.88971
  0
VERTEX
  5
390
  8
Layer_2
  10
535.11505
  20
210.2132
  0
VERTEX
  5
391
  8
Layer_2
  10
531.79382
  20
207.45325
  0
VERTEX
  5
392
  8
Layer_2
  10
528.54633
  20
204.61145
  0
VERTEX
  5
393
  8
Layer_2
  10
525.3739
  20
201.68927
  0
VERTEX
  5
394
  8
Layer_2
  10
522.2782
  20
198.68817
  0
VERTEX
  5
395
  8
Layer_2
  10
519.26056
  20
195.60965
  0
VERTEX
  5
396
  8
Layer_2
  10
516.32257
  20
192.45523
  0
VERTEX
  5
397
  8
Layer_2
  10
513.46576
  20
189.22638
  0
VERTEX
  5
398
  8
Layer_2
  10
510.69159
  20
185.92456
  0
VERTEX
  5
399
  8
Layer_2
  10
508.00159
  20
182.5513
  0
VERTEX
  5
39a
  8
Layer_2
  10
505.39722
  20
179.10809
  0
VERTEX
  5
39b
  8
Layer_2
  10
502.88
  20
175.59637
  0
VERTEX
  5
39c
  8
Layer_2
  10
500.45145
  20
172.0177
  0
VERTEX
  5
39d
  8
Layer_2
  10
499.22827
  20
170.08871
  0
VERTEX
  5
39e
  8
Layer_2
  10
498.07941
  20
168.12146
  0
VERTEX
  5
39f
  8
Layer_2
  10
497.00543
  20
166.11804
  0
VERTEX
  5
3a0
  8
Layer_2
  10
496.00696
  20
164.0806
  0
VERTEX
  5
3a1
  8
Layer_2
  10
495.08466
  20
162.01129
  0
VERTEX
  5
3a2
  8
Layer_2
  10
494.2392
  20
159.91223
  0
VERTEX
  5
3a3
  8
Layer_2
  10
493.47122
  20
157.78558
  0
VERTEX
  5
3a4
  8
Layer_2
  10
492.78137
  20
155.63348
  0
VERTEX
  5
3a5
  8
Layer_2
  10
492.17029
  20
153.45807
  0
VERTEX
  5
3a6
  8
Layer_2
  10
491.63855
  20
151.26147
  0
VERTEX
  5
3a7
  8
Layer_2
  10
491.18689
  20
149.04581
  0
VERTEX
  5
3a8
  8
Layer_2
  10
490.81592
  20
146.81326
  0
VERTEX
  5
3a9
  8
Layer_2
  10
490.52625
  20
144.56592
  0
VERTEX
  5
3aa
  8
Layer_2
  10
490.31854
  20
142.30597
  0
VERTEX
  5
3ab
  8
Layer_2
  10
490.19345
  20
140.03549
  0
VERTEX
  5
3ac
  8
Layer_2
  10
490.15161
  20
137.75668
  0
VERTEX
  5
3ad
  8
Layer_2
  10
490.15161
  20
41.884216
  0
SEQEND
  0
ENDSEC
  0
EOF
